<svg width="489" height="493" viewBox="0 0 489 493" fill="none" xmlns="http://www.w3.org/2000/svg">
<path d="M303.925 253.465L300.05 225.881L353.907 107.2L377.689 103.859L383.053 142.041L368.978 144.019L335.069 219.146L335.251 220.44L433.537 206.633L437.48 234.703L303.925 253.465ZM387.534 271.416L382.262 233.882L381.193 221.576L364.908 105.655L397.751 101.041L421.024 266.712L387.534 271.416Z" fill="url(#paint0_linear_14505_34594)"/>
<path d="M230.894 89.187C279.476 89.187 318.859 128.57 318.859 177.152C318.859 225.725 279.476 265.099 230.894 265.099C182.312 265.099 142.946 225.725 142.946 177.152C142.937 128.57 182.312 89.187 230.894 89.187ZM230.894 190.327C223.868 190.315 216.911 191.712 210.434 194.434C203.957 197.156 198.091 201.148 193.182 206.175C192.575 206.794 192.097 207.526 191.774 208.33C191.45 209.134 191.289 209.994 191.298 210.86C191.307 211.727 191.486 212.583 191.826 213.38C192.166 214.177 192.66 214.9 193.279 215.506C193.898 216.112 194.63 216.591 195.434 216.914C196.238 217.237 197.098 217.399 197.964 217.39C198.831 217.381 199.687 217.202 200.484 216.862C201.281 216.522 202.003 216.028 202.61 215.409C206.294 211.641 210.694 208.647 215.551 206.602C220.407 204.557 225.624 203.503 230.894 203.501C241.667 203.501 251.737 207.81 259.134 215.348C259.741 215.965 260.464 216.458 261.262 216.796C262.06 217.134 262.916 217.312 263.783 217.32C264.649 217.327 265.509 217.164 266.312 216.839C267.115 216.514 267.847 216.034 268.465 215.427C269.083 214.819 269.575 214.096 269.913 213.298C270.252 212.501 270.43 211.644 270.437 210.777C270.444 209.911 270.281 209.052 269.956 208.248C269.631 207.445 269.151 206.713 268.544 206.095C263.638 201.088 257.781 197.113 251.317 194.402C244.853 191.69 237.912 190.299 230.902 190.309M204.509 148.569C203.04 148.528 201.578 148.781 200.208 149.315C198.838 149.848 197.59 150.651 196.536 151.675C195.482 152.7 194.644 153.925 194.072 155.279C193.5 156.633 193.205 158.088 193.205 159.558C193.205 161.028 193.5 162.483 194.072 163.837C194.644 165.191 195.482 166.416 196.536 167.441C197.59 168.465 198.838 169.268 200.208 169.802C201.578 170.335 203.04 170.589 204.509 170.547C207.37 170.466 210.086 169.273 212.081 167.221C214.076 165.169 215.192 162.42 215.192 159.558C215.192 156.696 214.076 153.947 212.081 151.895C210.086 149.843 207.37 148.65 204.509 148.569ZM257.278 148.569C255.809 148.528 254.346 148.781 252.976 149.315C251.607 149.848 250.358 150.651 249.304 151.675C248.25 152.7 247.412 153.925 246.84 155.279C246.268 156.633 245.974 158.088 245.974 159.558C245.974 161.028 246.268 162.483 246.84 163.837C247.412 165.191 248.25 166.416 249.304 167.441C250.358 168.465 251.607 169.268 252.976 169.802C254.346 170.335 255.809 170.589 257.278 170.547C260.139 170.466 262.855 169.273 264.85 167.221C266.844 165.169 267.96 162.42 267.96 159.558C267.96 156.696 266.844 153.947 264.85 151.895C262.855 149.843 260.139 148.65 257.278 148.569Z" fill="#EF4444"/>
<path d="M24.5938 231.592V203.737L94.4371 93.7029H118.453V132.26H104.24L60.2098 201.94V203.247H159.461V231.592H24.5938ZM104.893 261V223.097L105.547 210.762V93.7029H138.712V261H104.893Z" fill="url(#paint1_linear_14505_34594)"/>
<path d="M278.757 38.7273C278.757 43.8485 277.772 48.1894 275.803 51.75C273.833 55.3106 271.166 58.0152 267.803 59.8636C264.454 61.7121 260.697 62.6364 256.53 62.6364C252.348 62.6364 248.583 61.7045 245.235 59.8409C241.886 57.9773 239.227 55.2727 237.257 51.7273C235.303 48.1667 234.325 43.8333 234.325 38.7273C234.325 33.6061 235.303 29.2652 237.257 25.7045C239.227 22.1439 241.886 19.4394 245.235 17.5909C248.583 15.7424 252.348 14.8182 256.53 14.8182C260.697 14.8182 264.454 15.7424 267.803 17.5909C271.166 19.4394 273.833 22.1439 275.803 25.7045C277.772 29.2652 278.757 33.6061 278.757 38.7273ZM267.257 38.7273C267.257 35.697 266.825 33.1364 265.962 31.0455C265.113 28.9545 263.886 27.3712 262.28 26.2955C260.689 25.2197 258.772 24.6818 256.53 24.6818C254.303 24.6818 252.386 25.2197 250.78 26.2955C249.174 27.3712 247.939 28.9545 247.075 31.0455C246.227 33.1364 245.803 35.697 245.803 38.7273C245.803 41.7576 246.227 44.3182 247.075 46.4091C247.939 48.5 249.174 50.0833 250.78 51.1591C252.386 52.2348 254.303 52.7727 256.53 52.7727C258.772 52.7727 260.689 52.2348 262.28 51.1591C263.886 50.0833 265.113 48.5 265.962 46.4091C266.825 44.3182 267.257 41.7576 267.257 38.7273ZM301.621 62.6591C297.954 62.6591 294.803 61.9091 292.166 60.4091C289.545 58.8939 287.522 56.7879 286.098 54.0909C284.689 51.3788 283.985 48.2348 283.985 44.6591C283.985 41.0682 284.689 37.9242 286.098 35.2273C287.522 32.5152 289.545 30.4091 292.166 28.9091C294.803 27.3939 297.954 26.6364 301.621 26.6364C305.288 26.6364 308.432 27.3939 311.053 28.9091C313.689 30.4091 315.712 32.5152 317.121 35.2273C318.545 37.9242 319.257 41.0682 319.257 44.6591C319.257 48.2348 318.545 51.3788 317.121 54.0909C315.712 56.7879 313.689 58.8939 311.053 60.4091C308.432 61.9091 305.288 62.6591 301.621 62.6591ZM301.689 54.2727C303.022 54.2727 304.151 53.8636 305.075 53.0455C306 52.2273 306.704 51.0909 307.189 49.6364C307.689 48.1818 307.939 46.5 307.939 44.5909C307.939 42.6515 307.689 40.9545 307.189 39.5C306.704 38.0455 306 36.9091 305.075 36.0909C304.151 35.2727 303.022 34.8636 301.689 34.8636C300.31 34.8636 299.144 35.2727 298.189 36.0909C297.25 36.9091 296.53 38.0455 296.03 39.5C295.545 40.9545 295.303 42.6515 295.303 44.5909C295.303 46.5 295.545 48.1818 296.03 49.6364C296.53 51.0909 297.25 52.2273 298.189 53.0455C299.144 53.8636 300.31 54.2727 301.689 54.2727ZM324.95 75.0909V27.0909H335.95V33.0682H336.291C336.746 32.0076 337.39 30.9848 338.223 30C339.072 29.0152 340.147 28.2121 341.45 27.5909C342.769 26.9545 344.344 26.6364 346.178 26.6364C348.602 26.6364 350.867 27.2727 352.973 28.5455C355.094 29.8182 356.807 31.7803 358.11 34.4318C359.413 37.0833 360.064 40.4621 360.064 44.5682C360.064 48.5227 359.435 51.8333 358.178 54.5C356.935 57.1667 355.253 59.1667 353.132 60.5C351.026 61.8333 348.685 62.5 346.11 62.5C344.352 62.5 342.829 62.2121 341.541 61.6364C340.253 61.0606 339.17 60.303 338.291 59.3636C337.428 58.4242 336.761 57.4167 336.291 56.3409H336.064V75.0909H324.95ZM335.837 44.5455C335.837 46.4242 336.087 48.0606 336.587 49.4545C337.102 50.8485 337.837 51.9318 338.791 52.7045C339.761 53.4621 340.92 53.8409 342.269 53.8409C343.632 53.8409 344.791 53.4621 345.746 52.7045C346.7 51.9318 347.42 50.8485 347.905 49.4545C348.405 48.0606 348.655 46.4242 348.655 44.5455C348.655 42.6667 348.405 41.0379 347.905 39.6591C347.42 38.2803 346.7 37.2121 345.746 36.4545C344.807 35.697 343.647 35.3182 342.269 35.3182C340.905 35.3182 339.746 35.6894 338.791 36.4318C337.837 37.1742 337.102 38.2348 336.587 39.6136C336.087 40.9924 335.837 42.6364 335.837 44.5455ZM396.365 37.75L386.161 38.0227C386.055 37.2955 385.767 36.6515 385.297 36.0909C384.827 35.5152 384.214 35.0682 383.456 34.75C382.714 34.4167 381.85 34.25 380.865 34.25C379.577 34.25 378.479 34.5076 377.57 35.0227C376.676 35.5379 376.236 36.2348 376.252 37.1136C376.236 37.7955 376.509 38.3864 377.07 38.8864C377.646 39.3864 378.668 39.7879 380.138 40.0909L386.865 41.3636C390.35 42.0303 392.941 43.1364 394.638 44.6818C396.35 46.2273 397.214 48.2727 397.229 50.8182C397.214 53.2121 396.502 55.2955 395.093 57.0682C393.699 58.8409 391.789 60.2197 389.365 61.2045C386.941 62.1742 384.168 62.6591 381.047 62.6591C376.062 62.6591 372.13 61.6364 369.252 59.5909C366.388 57.5303 364.752 54.7727 364.343 51.3182L375.32 51.0455C375.562 52.3182 376.191 53.2879 377.206 53.9545C378.221 54.6212 379.517 54.9545 381.093 54.9545C382.517 54.9545 383.676 54.6894 384.57 54.1591C385.464 53.6288 385.918 52.9242 385.933 52.0455C385.918 51.2576 385.57 50.6288 384.888 50.1591C384.206 49.6742 383.138 49.2955 381.683 49.0227L375.593 47.8636C372.093 47.2273 369.486 46.053 367.774 44.3409C366.062 42.6136 365.214 40.4167 365.229 37.75C365.214 35.4167 365.835 33.4242 367.093 31.7727C368.35 30.1061 370.138 28.8333 372.456 27.9545C374.774 27.0758 377.509 26.6364 380.661 26.6364C385.388 26.6364 389.115 27.6288 391.843 29.6136C394.57 31.5833 396.077 34.2955 396.365 37.75ZM415.769 15.4545L414.723 47.75H405.382L404.337 15.4545H415.769ZM410.041 62.6591C408.42 62.6591 407.026 62.0833 405.86 60.9318C404.708 59.7803 404.132 58.3864 404.132 56.75C404.132 55.1439 404.708 53.7727 405.86 52.6364C407.026 51.4848 408.42 50.9091 410.041 50.9091C411.602 50.9091 412.973 51.4848 414.155 52.6364C415.352 53.7727 415.95 55.1439 415.95 56.75C415.95 57.8409 415.67 58.8333 415.11 59.7273C414.564 60.6212 413.844 61.3333 412.95 61.8636C412.072 62.3939 411.102 62.6591 410.041 62.6591Z" fill="white"/>
<g filter="url(#filter0_dd_14505_34594)">
<path d="M22.5761 378.946C19.6481 378.946 17.3921 378.286 15.8081 376.966C14.2241 375.622 13.4321 373.786 13.4321 371.458V370.378C13.4321 369.61 13.5761 368.926 13.8641 368.326C14.1521 367.702 14.4761 367.15 14.8361 366.67C15.1961 366.19 15.5201 365.758 15.8081 365.374C16.0961 364.966 16.2401 364.582 16.2401 364.222C16.2401 363.886 16.1561 363.658 15.9881 363.538C15.8201 363.394 15.5321 363.322 15.1241 363.322H13.0001L13.4681 359.146H19.0841C20.2121 359.146 21.0161 359.398 21.4961 359.902C22.0001 360.406 22.2521 361.162 22.2521 362.17C22.2521 362.986 22.0961 363.718 21.7841 364.366C21.4961 365.014 21.1481 365.626 20.7401 366.202C20.3321 366.778 19.9721 367.378 19.6601 368.002C19.3721 368.602 19.2281 369.274 19.2281 370.018V371.602C19.2281 373.594 20.3441 374.59 22.5761 374.59C24.8561 374.59 25.9961 373.534 25.9961 371.422V359.146H31.7921V371.35C31.7921 373.726 30.9641 375.586 29.3081 376.93C27.6761 378.274 25.4321 378.946 22.5761 378.946ZM43.6169 378.946C41.9609 378.946 40.3889 378.802 38.9009 378.514C37.4129 378.202 36.1769 377.83 35.1929 377.398V367.102H43.8329L44.0849 371.098H40.8449V374.23C41.2529 374.35 41.6849 374.446 42.1409 374.518C42.5969 374.566 43.0769 374.59 43.5809 374.59C45.3089 374.59 46.5089 374.17 47.1809 373.33C47.8769 372.466 48.2249 371.014 48.2249 368.974C48.2249 367.462 48.0209 366.286 47.6129 365.446C47.2289 364.582 46.5929 363.982 45.7049 363.646C44.8169 363.31 43.6289 363.142 42.1409 363.142C41.1089 363.142 39.9929 363.226 38.7929 363.394C37.6169 363.562 36.4889 363.814 35.4089 364.15V359.974C36.5849 359.59 37.9049 359.302 39.3689 359.11C40.8329 358.894 42.2249 358.786 43.5449 358.786C47.1929 358.786 49.8449 359.65 51.5009 361.378C53.1569 363.106 53.9849 365.638 53.9849 368.974C53.9849 372.214 53.1689 374.686 51.5369 376.39C49.9049 378.094 47.2649 378.946 43.6169 378.946ZM64.9568 378.946C63.3008 378.946 61.7288 378.802 60.2408 378.514C58.7528 378.202 57.5168 377.83 56.5328 377.398V367.102H65.1728L65.4248 371.098H62.1848V374.23C62.5928 374.35 63.0248 374.446 63.4808 374.518C63.9368 374.566 64.4168 374.59 64.9208 374.59C66.6488 374.59 67.8488 374.17 68.5208 373.33C69.2168 372.466 69.5648 371.014 69.5648 368.974C69.5648 367.462 69.3608 366.286 68.9528 365.446C68.5688 364.582 67.9328 363.982 67.0448 363.646C66.1568 363.31 64.9688 363.142 63.4808 363.142C62.4488 363.142 61.3328 363.226 60.1328 363.394C58.9568 363.562 57.8288 363.814 56.7488 364.15V359.974C57.9248 359.59 59.2448 359.302 60.7088 359.11C62.1728 358.894 63.5648 358.786 64.8848 358.786C68.5328 358.786 71.1848 359.65 72.8408 361.378C74.4968 363.106 75.3248 365.638 75.3248 368.974C75.3248 372.214 74.5088 374.686 72.8768 376.39C71.2448 378.094 68.6048 378.946 64.9568 378.946ZM77.7286 378.586V374.518H78.7726C79.2046 374.518 79.5046 374.422 79.6726 374.23C79.8406 374.038 79.9246 373.726 79.9246 373.294V372.286C79.9246 371.278 80.0806 370.402 80.3926 369.658C80.7046 368.89 81.3766 368.314 82.4086 367.93L78.9166 366.958V362.062C79.9726 361.246 81.3286 360.502 82.9846 359.83C84.6646 359.134 86.5846 358.786 88.7446 358.786C91.8886 358.786 94.2526 359.446 95.8366 360.766C97.4446 362.086 98.2486 364.126 98.2486 366.886V378.586H92.4166V366.922C92.4166 365.554 92.1046 364.582 91.4806 364.006C90.8566 363.43 89.8366 363.142 88.4206 363.142C87.4846 363.142 86.6206 363.274 85.8286 363.538C85.0366 363.802 84.3886 364.138 83.8846 364.546V364.942L87.7726 366.058V369.118C86.9566 369.382 86.4286 369.754 86.1886 370.234C85.9726 370.69 85.8646 371.41 85.8646 372.394V374.05C85.8646 375.61 85.4686 376.762 84.6766 377.506C83.8846 378.226 82.7686 378.586 81.3286 378.586H77.7286ZM88.3902 356.806V350.614H92.9262V353.026H101.71L101.494 356.806H88.3902ZM110.998 378.946C109.102 378.946 107.422 378.73 105.958 378.298C104.494 377.842 103.342 377.146 102.502 376.21C101.686 375.274 101.278 374.05 101.278 372.538C101.278 371.698 101.458 370.93 101.818 370.234C102.202 369.538 102.766 368.962 103.51 368.506C102.886 368.17 102.37 367.666 101.962 366.994C101.554 366.322 101.35 365.518 101.35 364.582C101.35 362.662 101.974 361.222 103.222 360.262C104.47 359.278 106.114 358.786 108.154 358.786C108.922 358.786 109.594 358.834 110.17 358.93C110.77 359.026 111.286 359.158 111.718 359.326V363.43C111.07 363.238 110.302 363.142 109.414 363.142C108.67 363.142 108.094 363.262 107.686 363.502C107.302 363.742 107.11 364.174 107.11 364.798C107.11 365.47 107.314 365.926 107.722 366.166C108.154 366.406 108.766 366.526 109.558 366.526H111.466L111.682 370.486H109.522C107.866 370.486 107.038 371.17 107.038 372.538C107.038 373.21 107.326 373.726 107.902 374.086C108.502 374.422 109.486 374.59 110.854 374.59C113.494 374.59 114.814 373.522 114.814 371.386V359.146H120.646V371.026C120.646 373.786 119.806 375.802 118.126 377.074C116.446 378.322 114.07 378.946 110.998 378.946ZM136.591 378.586C135.247 378.586 134.239 378.25 133.567 377.578C132.919 376.906 132.595 375.946 132.595 374.698V358.93C132.595 357.85 132.775 356.89 133.135 356.05C133.495 355.21 133.987 354.562 134.611 354.106H129.643V350.002H141.595V353.746C140.419 354.106 139.591 354.742 139.111 355.654C138.631 356.566 138.391 357.754 138.391 359.218V373.186C138.391 374.074 138.823 374.518 139.687 374.518H141.055V378.586H136.591ZM155.399 378.946C154.079 378.946 152.891 378.766 151.835 378.406C150.803 378.022 149.879 377.518 149.063 376.894L148.847 378.586H143.483V359.146H149.279V372.898C149.711 373.354 150.299 373.75 151.043 374.086C151.787 374.422 152.555 374.59 153.347 374.59C154.379 374.59 155.135 374.338 155.615 373.834C156.119 373.33 156.371 372.526 156.371 371.422V359.146H162.203V371.926C162.203 374.158 161.579 375.886 160.331 377.11C159.107 378.334 157.463 378.946 155.399 378.946ZM156.479 357.13V351.118H162.275V357.13H156.479ZM169.115 378.586L164.903 359.146H170.267L172.283 370.63L175.055 362.566V359.146H179.087L182.435 370.63L184.415 359.146H189.743L185.495 378.586H180.599L177.431 368.29L174.011 378.586H169.115ZM201.963 378.946C199.035 378.946 196.695 378.262 194.943 376.894C193.215 375.502 192.351 373.39 192.351 370.558V359.146H198.147V370.738C198.147 372.058 198.459 373.03 199.083 373.654C199.707 374.278 200.667 374.59 201.963 374.59C203.235 374.59 204.183 374.278 204.807 373.654C205.431 373.03 205.743 372.058 205.743 370.738V359.146H211.575V370.558C211.575 373.39 210.699 375.502 208.947 376.894C207.219 378.262 204.891 378.946 201.963 378.946ZM215.343 378.586V359.146H221.139V364.726H225.171C226.227 364.726 226.959 364.486 227.367 364.006C227.775 363.526 227.979 362.806 227.979 361.846V359.146H233.811V361.99C233.811 363.094 233.619 364.09 233.235 364.978C232.875 365.842 232.215 366.478 231.255 366.886C232.167 367.27 232.803 367.846 233.163 368.614C233.523 369.382 233.703 370.27 233.703 371.278V378.586H227.871V372.034C227.871 370.978 227.667 370.234 227.259 369.802C226.851 369.37 226.119 369.154 225.063 369.154H221.139V378.586H215.343ZM244.329 378.946C242.289 378.946 240.657 378.334 239.433 377.11C238.209 375.886 237.597 374.158 237.597 371.926V359.146H243.393V371.422C243.393 372.526 243.645 373.33 244.149 373.834C244.653 374.338 245.421 374.59 246.453 374.59C247.245 374.59 248.001 374.422 248.721 374.086C249.465 373.75 250.053 373.354 250.485 372.898V359.146H256.317V378.586H250.953L250.701 376.894C249.885 377.518 248.949 378.022 247.893 378.406C246.837 378.766 245.649 378.946 244.329 378.946ZM247.065 356.986V353.854H244.257V350.038H250.845V353.134H258.477L258.261 356.986H247.065ZM266.613 378.586V366.85C266.613 365.602 266.373 364.678 265.893 364.078C265.413 363.454 264.501 363.142 263.157 363.142C262.341 363.142 261.513 363.238 260.673 363.43C259.857 363.622 259.101 363.85 258.405 364.114V360.01C259.125 359.674 260.025 359.386 261.105 359.146C262.185 358.906 263.277 358.786 264.381 358.786C267.213 358.786 269.253 359.41 270.501 360.658C271.773 361.882 272.409 363.742 272.409 366.238V378.586H266.613ZM276.198 378.586V359.146H281.562L281.778 360.874C282.594 360.25 283.542 359.746 284.622 359.362C285.726 358.978 286.938 358.786 288.258 358.786C290.298 358.786 291.918 359.398 293.118 360.622C294.318 361.846 294.918 363.55 294.918 365.734V378.586H289.086V366.238C289.086 365.158 288.834 364.378 288.33 363.898C287.85 363.418 287.094 363.178 286.062 363.178C285.27 363.178 284.502 363.346 283.758 363.682C283.014 363.994 282.426 364.39 281.994 364.87V378.586H276.198ZM278.43 356.806L278.718 352.882H290.166V350.074H294.882V356.806H278.43ZM290.17 348.598V343.558H294.886V348.598H290.17ZM298.698 378.586V366.814C298.698 364.246 299.49 362.266 301.074 360.874C302.658 359.482 305.046 358.786 308.238 358.786C311.43 358.786 313.818 359.482 315.402 360.874C316.986 362.266 317.778 364.246 317.778 366.814V378.586H311.982V366.598C311.982 365.518 311.658 364.678 311.01 364.078C310.362 363.454 309.438 363.142 308.238 363.142C306.99 363.142 306.054 363.442 305.43 364.042C304.806 364.642 304.494 365.494 304.494 366.598V369.37C305.358 368.746 306.366 368.434 307.518 368.434H309.642L309.786 373.006H307.446C306.294 373.006 305.31 373.282 304.494 373.834V378.586H298.698ZM312.946 387.766V383.842H310.786L311.002 380.206H317.734V387.766H312.946ZM340.702 378.946C338.662 378.946 337.054 378.334 335.878 377.11C334.702 375.886 334.114 374.158 334.114 371.926V366.922C334.114 365.554 333.814 364.582 333.214 364.006C332.614 363.43 331.606 363.142 330.19 363.142C329.254 363.142 328.402 363.274 327.634 363.538C326.89 363.802 326.278 364.138 325.798 364.546V364.942L329.686 366.058V369.118C328.822 369.358 328.222 369.718 327.886 370.198C327.55 370.654 327.382 371.35 327.382 372.286V373.294C327.382 374.11 327.79 374.518 328.606 374.518H330.298V378.586H325.33C324.202 378.586 323.29 378.238 322.594 377.542C321.922 376.822 321.586 375.91 321.586 374.806V372.43C321.586 371.422 321.778 370.51 322.162 369.694C322.546 368.854 323.254 368.266 324.286 367.93L320.83 366.958V362.062C321.862 361.246 323.194 360.502 324.826 359.83C326.458 359.134 328.354 358.786 330.514 358.786C333.658 358.786 335.986 359.446 337.498 360.766C339.034 362.062 339.802 364.102 339.802 366.886V371.422C339.802 372.526 340.03 373.33 340.486 373.834C340.966 374.338 341.71 374.59 342.718 374.59C343.486 374.59 344.206 374.422 344.878 374.086C345.574 373.75 346.138 373.354 346.57 372.898V359.146H352.402V378.586H347.038L346.786 376.894C345.994 377.542 345.106 378.046 344.122 378.406C343.162 378.766 342.022 378.946 340.702 378.946ZM363.739 378.946C362.131 378.946 360.703 378.622 359.455 377.974C358.207 377.326 357.223 376.306 356.503 374.914C355.807 373.498 355.459 371.662 355.459 369.406C355.459 365.926 356.059 363.286 357.259 361.486C358.459 359.686 360.151 358.786 362.335 358.786C363.319 358.786 364.123 358.954 364.747 359.29C365.371 359.626 365.899 360.07 366.331 360.622C366.859 360.07 367.543 359.626 368.383 359.29C369.247 358.954 370.123 358.786 371.011 358.786C372.835 358.786 374.143 359.314 374.935 360.37C375.751 361.402 376.159 362.734 376.159 364.366V378.586H370.327V365.41C370.327 364.666 370.231 364.102 370.039 363.718C369.847 363.334 369.475 363.142 368.923 363.142C368.107 363.142 367.567 363.61 367.303 364.546H365.143C364.927 364.09 364.711 363.742 364.495 363.502C364.279 363.262 363.955 363.142 363.523 363.142C362.899 363.142 362.419 363.418 362.083 363.97C361.747 364.522 361.519 365.278 361.399 366.238C361.279 367.174 361.219 368.23 361.219 369.406C361.219 371.326 361.531 372.67 362.155 373.438C362.779 374.206 363.715 374.59 364.963 374.59C365.371 374.59 365.779 374.566 366.187 374.518C366.619 374.47 366.991 374.398 367.303 374.302V378.37C366.847 378.538 366.331 378.67 365.755 378.766C365.179 378.886 364.507 378.946 363.739 378.946ZM366.912 356.986V353.854H364.104V350.038H370.692V353.134H378.324L378.108 356.986H366.912ZM387.972 378.946C386.316 378.946 384.744 378.802 383.256 378.514C381.768 378.202 380.532 377.83 379.548 377.398V367.102H388.188L388.44 371.098H385.2V374.23C385.608 374.35 386.04 374.446 386.496 374.518C386.952 374.566 387.432 374.59 387.936 374.59C389.664 374.59 390.864 374.17 391.536 373.33C392.232 372.466 392.58 371.014 392.58 368.974C392.58 367.462 392.376 366.286 391.968 365.446C391.584 364.582 390.948 363.982 390.06 363.646C389.172 363.31 387.984 363.142 386.496 363.142C385.464 363.142 384.348 363.226 383.148 363.394C381.972 363.562 380.844 363.814 379.764 364.15V359.974C380.94 359.59 382.26 359.302 383.724 359.11C385.188 358.894 386.58 358.786 387.9 358.786C391.548 358.786 394.2 359.65 395.856 361.378C397.512 363.106 398.34 365.638 398.34 368.974C398.34 372.214 397.524 374.686 395.892 376.39C394.26 378.094 391.62 378.946 387.972 378.946ZM409.564 378.946C408.892 378.946 408.136 378.898 407.296 378.802C406.48 378.706 405.772 378.55 405.172 378.334L399.844 365.23H405.496L409.384 374.77C412.192 374.626 413.596 372.466 413.596 368.29C413.596 366.442 413.296 365.194 412.696 364.546C412.12 363.874 411.1 363.538 409.636 363.538H408.196V359.146H410.644C416.452 359.146 419.356 362.194 419.356 368.29C419.356 370.786 418.936 372.826 418.096 374.41C417.28 375.97 416.128 377.122 414.64 377.866C413.176 378.586 411.484 378.946 409.564 378.946ZM421.887 378.586V372.43C421.887 371.422 422.079 370.51 422.463 369.694C422.847 368.854 423.555 368.266 424.587 367.93L421.131 366.958V362.062C422.163 361.246 423.519 360.502 425.199 359.83C426.879 359.134 428.799 358.786 430.959 358.786C434.175 358.786 436.587 359.446 438.195 360.766C439.827 362.062 440.643 364.102 440.643 366.886V378.586H434.847V366.922C434.847 365.554 434.511 364.582 433.839 364.006C433.191 363.43 432.123 363.142 430.635 363.142C429.699 363.142 428.823 363.274 428.007 363.538C427.215 363.802 426.579 364.138 426.099 364.546V364.942L429.987 366.058V369.118C429.123 369.358 428.523 369.73 428.187 370.234C427.851 370.738 427.683 371.494 427.683 372.502V378.586H421.887ZM450.937 378.586V366.85C450.937 365.602 450.697 364.678 450.217 364.078C449.737 363.454 448.825 363.142 447.481 363.142C446.665 363.142 445.837 363.238 444.997 363.43C444.181 363.622 443.425 363.85 442.729 364.114V360.01C443.449 359.674 444.349 359.386 445.429 359.146C446.509 358.906 447.601 358.786 448.705 358.786C451.537 358.786 453.577 359.41 454.825 360.658C456.097 361.882 456.733 363.742 456.733 366.238V378.586H450.937ZM467.255 378.946C465.839 378.946 464.483 378.838 463.187 378.622C461.915 378.43 460.895 378.178 460.127 377.866V373.33C461.015 373.714 462.011 374.026 463.115 374.266C464.219 374.482 465.227 374.59 466.139 374.59C467.507 374.59 468.479 374.494 469.055 374.302C469.631 374.11 469.919 373.726 469.919 373.15C469.919 372.67 469.751 372.298 469.415 372.034C469.079 371.77 468.551 371.518 467.831 371.278C467.135 371.014 466.223 370.69 465.095 370.306C463.391 369.682 462.083 368.974 461.171 368.182C460.259 367.366 459.803 366.202 459.803 364.69C459.803 362.938 460.487 361.522 461.855 360.442C463.247 359.338 465.347 358.786 468.155 358.786C469.331 358.786 470.507 358.882 471.683 359.074C472.859 359.242 473.807 359.434 474.527 359.65V364.15C473.759 363.814 472.871 363.562 471.863 363.394C470.855 363.226 469.967 363.142 469.199 363.142C468.167 363.142 467.303 363.25 466.607 363.466C465.911 363.658 465.563 364.066 465.563 364.69C465.563 365.098 465.743 365.434 466.103 365.698C466.487 365.938 467.027 366.166 467.723 366.382C468.443 366.598 469.295 366.886 470.279 367.246C471.647 367.75 472.727 368.254 473.519 368.758C474.311 369.262 474.863 369.862 475.175 370.558C475.511 371.254 475.679 372.142 475.679 373.222C475.679 375.07 474.935 376.486 473.447 377.47C471.983 378.454 469.919 378.946 467.255 378.946Z" fill="url(#paint2_linear_14505_34594)"/>
</g>
<path d="M11.874 470.586C11.874 458.436 21.7238 448.586 33.874 448.586H454.874C467.024 448.586 476.874 458.436 476.874 470.586C476.874 482.737 467.024 492.586 454.874 492.586H33.874C21.7238 492.586 11.874 482.737 11.874 470.586Z" fill="#171717"/>
<path d="M31.0955 476.586V473.49C31.0955 472.938 31.1855 472.452 31.3655 472.032C31.5575 471.6 31.9295 471.3 32.4815 471.132L30.6455 470.646V468.324C31.1375 467.904 31.7915 467.526 32.6075 467.19C33.4355 466.854 34.3775 466.686 35.4335 466.686C36.4055 466.686 37.2335 466.812 37.9175 467.064C38.6135 467.316 39.1415 467.736 39.5015 468.324C39.8735 468.912 40.0595 469.71 40.0595 470.718V476.586H37.6295V470.664C37.6295 469.908 37.4495 469.374 37.0895 469.062C36.7415 468.738 36.1475 468.576 35.3075 468.576C34.7675 468.576 34.2695 468.654 33.8135 468.81C33.3695 468.966 33.0095 469.164 32.7335 469.404V469.656L34.7315 470.196V471.672C34.2515 471.792 33.9275 471.99 33.7595 472.266C33.6035 472.53 33.5255 472.944 33.5255 473.508V476.586H31.0955ZM45.2808 476.766C44.6688 476.766 44.1048 476.67 43.5888 476.478C43.0728 476.274 42.6588 475.95 42.3468 475.506C42.0468 475.05 41.8968 474.45 41.8968 473.706C41.8968 472.734 42.2268 471.99 42.8868 471.474C43.5468 470.946 44.4948 470.682 45.7308 470.682H48.4848V470.214C48.4848 469.614 48.3168 469.194 47.9808 468.954C47.6448 468.702 47.0508 468.576 46.1988 468.576C45.6108 468.576 45.0528 468.618 44.5248 468.702C44.0088 468.774 43.4928 468.894 42.9768 469.062V467.244C43.4688 467.088 44.0388 466.956 44.6868 466.848C45.3348 466.74 45.9708 466.686 46.5948 466.686C48.0468 466.686 49.1268 466.992 49.8348 467.604C50.5548 468.216 50.9148 469.17 50.9148 470.466V476.586H48.4848V472.464H45.8748C45.3588 472.464 44.9508 472.554 44.6508 472.734C44.3508 472.914 44.2008 473.238 44.2008 473.706C44.2008 474.15 44.3328 474.456 44.5968 474.624C44.8608 474.792 45.3048 474.876 45.9288 474.876C46.1568 474.876 46.3788 474.864 46.5948 474.84C46.8228 474.816 47.0148 474.78 47.1708 474.732V476.514C46.9428 476.586 46.6608 476.646 46.3248 476.694C46.0008 476.742 45.6528 476.766 45.2808 476.766ZM46.2805 465.534V462.672H48.2605V463.878H52.7425L52.6525 465.534H46.2805ZM57.6745 476.766C56.2465 476.766 55.1185 476.43 54.2905 475.758C53.4625 475.074 53.0485 474.048 53.0485 472.68V466.866H55.4785V472.716C55.4785 474.156 56.2105 474.876 57.6745 474.876C59.1385 474.876 59.8705 474.156 59.8705 472.716V466.866H62.3005V472.68C62.3005 474.048 61.8865 475.074 61.0585 475.758C60.2305 476.43 59.1025 476.766 57.6745 476.766ZM67.5171 476.766C66.9051 476.766 66.3411 476.67 65.8251 476.478C65.3091 476.274 64.8951 475.95 64.5831 475.506C64.2831 475.05 64.1331 474.45 64.1331 473.706C64.1331 472.734 64.4631 471.99 65.1231 471.474C65.7831 470.946 66.7311 470.682 67.9671 470.682H70.7211V470.214C70.7211 469.614 70.5531 469.194 70.2171 468.954C69.8811 468.702 69.2871 468.576 68.4351 468.576C67.8471 468.576 67.2891 468.618 66.7611 468.702C66.2451 468.774 65.7291 468.894 65.2131 469.062V467.244C65.7051 467.088 66.2751 466.956 66.9231 466.848C67.5711 466.74 68.2071 466.686 68.8311 466.686C69.1551 466.686 69.4611 466.704 69.7491 466.74C70.0371 466.764 70.3071 466.806 70.5591 466.866H73.9431L73.8171 468.72H72.7191C72.8631 468.948 72.9711 469.212 73.0431 469.512C73.1151 469.812 73.1511 470.13 73.1511 470.466V476.586H70.7211V472.464H68.1111C67.5951 472.464 67.1871 472.554 66.8871 472.734C66.5871 472.914 66.4371 473.238 66.4371 473.706C66.4371 474.15 66.5691 474.456 66.8331 474.624C67.0971 474.792 67.5411 474.876 68.1651 474.876C68.3931 474.876 68.6151 474.864 68.8311 474.84C69.0591 474.816 69.2511 474.78 69.4071 474.732V476.514C69.1791 476.586 68.8971 476.646 68.5611 476.694C68.2371 476.742 67.8891 476.766 67.5171 476.766ZM70.6249 481.338C69.8929 481.338 69.3169 481.194 68.8969 480.906C68.4769 480.618 68.2669 480.252 68.2669 479.808V478.962H67.2769L67.3669 477.504H69.9589V479.232C69.9589 479.616 70.1809 479.808 70.6249 479.808C71.0809 479.808 71.3089 479.616 71.3089 479.232V477.504H73.0369V479.412C73.0369 479.928 72.8449 480.378 72.4609 480.762C72.0769 481.146 71.4649 481.338 70.6249 481.338ZM70.6232 465.534V462.564H73.0532V465.534H70.6232ZM75.6364 476.586V466.866H78.0664V469.818H80.4784C81.1024 469.818 81.5284 469.686 81.7564 469.422C81.9964 469.146 82.1164 468.732 82.1164 468.18V466.866H84.5464V468.09C84.5464 468.69 84.4444 469.224 84.2404 469.692C84.0484 470.148 83.6884 470.478 83.1604 470.682C83.6644 470.874 84.0064 471.174 84.1864 471.582C84.3784 471.978 84.4744 472.44 84.4744 472.968V476.586H82.0444V473.238C82.0444 472.626 81.9244 472.2 81.6844 471.96C81.4564 471.72 81.0364 471.6 80.4244 471.6H78.0664V476.586H75.6364ZM89.9887 476.766C88.9447 476.766 88.1227 476.454 87.5227 475.83C86.9227 475.194 86.6227 474.312 86.6227 473.184V466.866H89.0527V473.04C89.0527 473.7 89.1967 474.174 89.4847 474.462C89.7847 474.738 90.2227 474.876 90.7987 474.876C91.2547 474.876 91.6987 474.78 92.1307 474.588C92.5627 474.396 92.9107 474.156 93.1747 473.868V466.866H95.6047V476.586H93.3727L93.2647 475.632C92.8327 475.98 92.3467 476.256 91.8067 476.46C91.2667 476.664 90.6607 476.766 89.9887 476.766ZM91.1436 465.534V463.932H89.7396V462.276H92.7816V463.878H96.6336L96.5436 465.534H91.1436ZM101.188 476.586V470.61C101.188 469.962 101.062 469.464 100.81 469.116C100.558 468.756 100.054 468.576 99.2976 468.576C98.9016 468.576 98.4816 468.624 98.0376 468.72C97.5936 468.804 97.1976 468.912 96.8496 469.044V467.262C97.2096 467.094 97.6536 466.956 98.1816 466.848C98.7096 466.74 99.2376 466.686 99.7656 466.686C101.134 466.686 102.118 466.98 102.718 467.568C103.318 468.144 103.618 469.044 103.618 470.268V476.586H101.188ZM105.765 476.586V466.866H108.195V469.818H110.607C111.231 469.818 111.657 469.686 111.885 469.422C112.125 469.146 112.245 468.732 112.245 468.18V466.866H114.675V468.09C114.675 468.69 114.573 469.224 114.369 469.692C114.177 470.148 113.817 470.478 113.289 470.682C113.793 470.874 114.135 471.174 114.315 471.582C114.507 471.978 114.603 472.44 114.603 472.968V476.586H112.173V473.238C112.173 472.626 112.053 472.2 111.813 471.96C111.585 471.72 111.165 471.6 110.553 471.6H108.195V476.586H105.765ZM119.83 476.766C119.218 476.766 118.654 476.67 118.138 476.478C117.622 476.274 117.208 475.95 116.896 475.506C116.596 475.05 116.446 474.45 116.446 473.706C116.446 472.734 116.776 471.99 117.436 471.474C118.096 470.946 119.044 470.682 120.28 470.682H123.034V470.214C123.034 469.614 122.866 469.194 122.53 468.954C122.194 468.702 121.6 468.576 120.748 468.576C120.16 468.576 119.602 468.618 119.074 468.702C118.558 468.774 118.042 468.894 117.526 469.062V467.244C118.018 467.088 118.588 466.956 119.236 466.848C119.884 466.74 120.52 466.686 121.144 466.686C122.596 466.686 123.676 466.992 124.384 467.604C125.104 468.216 125.464 469.17 125.464 470.466V476.586H123.034V472.464H120.424C119.908 472.464 119.5 472.554 119.2 472.734C118.9 472.914 118.75 473.238 118.75 473.706C118.75 474.15 118.882 474.456 119.146 474.624C119.41 474.792 119.854 474.876 120.478 474.876C120.706 474.876 120.928 474.864 121.144 474.84C121.372 474.816 121.564 474.78 121.72 474.732V476.514C121.492 476.586 121.21 476.646 120.874 476.694C120.55 476.742 120.202 476.766 119.83 476.766ZM120.829 465.534V462.672H122.809V463.878H127.291L127.201 465.534H120.829ZM127.687 476.586V473.49C127.687 472.938 127.777 472.452 127.957 472.032C128.149 471.6 128.521 471.3 129.073 471.132L127.237 470.646V468.324C127.729 467.904 128.383 467.526 129.199 467.19C130.027 466.854 130.969 466.686 132.025 466.686C132.997 466.686 133.825 466.812 134.509 467.064C135.205 467.316 135.733 467.736 136.093 468.324C136.465 468.912 136.651 469.71 136.651 470.718V476.586H134.221V470.664C134.221 469.908 134.041 469.374 133.681 469.062C133.333 468.738 132.739 468.576 131.899 468.576C131.359 468.576 130.861 468.654 130.405 468.81C129.961 468.966 129.601 469.164 129.325 469.404V469.656L131.323 470.196V471.672C130.843 471.792 130.519 471.99 130.351 472.266C130.195 472.53 130.117 472.944 130.117 473.508V476.586H127.687Z" fill="white"/>
<path d="M439.874 470.586H453.874M453.874 470.586L446.874 463.586M453.874 470.586L446.874 477.586" stroke="white" stroke-width="2" stroke-linecap="round" stroke-linejoin="round"/>
<defs>
<filter id="filter0_dd_14505_34594" x="0" y="343.559" width="488.679" height="77.208" filterUnits="userSpaceOnUse" color-interpolation-filters="sRGB">
<feFlood flood-opacity="0" result="BackgroundImageFix"/>
<feColorMatrix in="SourceAlpha" type="matrix" values="0 0 0 0 0 0 0 0 0 0 0 0 0 0 0 0 0 0 127 0" result="hardAlpha"/>
<feOffset dy="8"/>
<feGaussianBlur stdDeviation="2.5"/>
<feColorMatrix type="matrix" values="0 0 0 0 0 0 0 0 0 0 0 0 0 0 0 0 0 0 0.08 0"/>
<feBlend mode="normal" in2="BackgroundImageFix" result="effect1_dropShadow_14505_34594"/>
<feColorMatrix in="SourceAlpha" type="matrix" values="0 0 0 0 0 0 0 0 0 0 0 0 0 0 0 0 0 0 127 0" result="hardAlpha"/>
<feOffset dy="20"/>
<feGaussianBlur stdDeviation="6.5"/>
<feColorMatrix type="matrix" values="0 0 0 0 0 0 0 0 0 0 0 0 0 0 0 0 0 0 0.03 0"/>
<feBlend mode="normal" in2="effect1_dropShadow_14505_34594" result="effect2_dropShadow_14505_34594"/>
<feBlend mode="normal" in="SourceGraphic" in2="effect2_dropShadow_14505_34594" result="shape"/>
</filter>
<linearGradient id="paint0_linear_14505_34594" x1="389.964" y1="326.615" x2="358.196" y2="100.478" gradientUnits="userSpaceOnUse">
<stop stop-color="#A3A3A3"/>
<stop offset="1" stop-color="white"/>
</linearGradient>
<linearGradient id="paint1_linear_14505_34594" x1="91.5659" y1="316" x2="91.5659" y2="87.6428" gradientUnits="userSpaceOnUse">
<stop stop-color="#A3A3A3"/>
<stop offset="1" stop-color="white"/>
</linearGradient>
<linearGradient id="paint2_linear_14505_34594" x1="244.374" y1="392.586" x2="244.374" y2="348.229" gradientUnits="userSpaceOnUse">
<stop stop-color="#A3A3A3"/>
<stop offset="1" stop-color="white"/>
</linearGradient>
</defs>
</svg>
