<svg width="15" height="11" viewBox="0 0 15 11" fill="none" xmlns="http://www.w3.org/2000/svg">
<path d="M10.1629 2.55046C10.9116 3.3004 11.3321 4.31678 11.3321 5.37646C11.3321 6.43613 10.9116 7.45251 10.1629 8.20246M12.0482 0.665039C13.2968 1.91506 13.9981 3.60959 13.9981 5.37637C13.9981 7.14315 13.2968 8.83768 12.0482 10.0877M2.61495 10.0877C1.36637 8.83768 0.665039 7.14315 0.665039 5.37637C0.665039 3.60959 1.36637 1.91506 2.61495 0.665039M4.5002 8.20246C3.75154 7.45251 3.33105 6.43613 3.33105 5.37646C3.33105 4.31678 3.75154 3.3004 4.5002 2.55046M8.66488 5.3763C8.66488 6.11268 8.06792 6.70964 7.33154 6.70964C6.59516 6.70964 5.99821 6.11268 5.99821 5.3763C5.99821 4.63992 6.59516 4.04297 7.33154 4.04297C8.06792 4.04297 8.66488 4.63992 8.66488 5.3763Z" stroke="white" stroke-width="1.33" stroke-linecap="round" stroke-linejoin="round"/>
</svg>
