<svg width="16" height="16" viewBox="0 0 16 16" fill="none" xmlns="http://www.w3.org/2000/svg">
<path d="M8 16C12.4183 16 16 12.4183 16 8C16 3.58172 12.4183 0 8 0C3.58172 0 0 3.58172 0 8C0 12.4183 3.58172 16 8 16Z" fill="#432918"/>
<path d="M8.0003 1.17799C4.23295 1.17799 1.17799 4.23235 1.17799 8.0003C1.17799 11.7682 4.23295 14.8214 8.0003 14.8214C11.7676 14.8214 14.8214 11.7676 14.8214 8.0003C14.8214 4.23295 11.7676 1.17799 8.0003 1.17799ZM8.0003 1.17799C4.23295 1.17799 1.17799 4.23235 1.17799 8.0003C1.17799 11.7682 4.23295 14.8214 8.0003 14.8214C11.7676 14.8214 14.8214 11.7676 14.8214 8.0003C14.8214 4.23295 11.7676 1.17799 8.0003 1.17799ZM13.4958 2.50422C12.0275 1.03628 10.0761 0.227738 8 0.227738C5.92387 0.227738 3.97246 1.03598 2.50422 2.50422C1.03628 3.97246 0.227738 5.92387 0.227738 8C0.227738 10.0761 1.03598 12.0275 2.50422 13.4958C3.97217 14.9637 5.92387 15.7723 8 15.7723C10.0761 15.7723 12.0275 14.964 13.4958 13.4958C14.9637 12.0278 15.7723 10.0761 15.7723 8C15.7723 5.92387 14.964 3.97246 13.4958 2.50422ZM12.8906 12.89C12.2562 13.5255 11.5164 14.0242 10.6921 14.3725C9.84006 14.7336 8.93417 14.9164 8.0003 14.9164C7.06642 14.9164 6.16083 14.7339 5.30793 14.3725C4.4845 14.0239 3.74473 13.5255 3.10944 12.89C2.47386 12.2556 1.97522 11.5161 1.62691 10.6915C1.267 9.83947 1.08302 8.93358 1.08302 8.0003C1.08302 7.06702 1.2667 6.16083 1.62691 5.30734C1.97551 4.4845 2.47386 3.74473 3.10944 3.10885C3.74473 2.47356 4.4845 1.97522 5.30793 1.62661C6.16083 1.2667 7.06672 1.08272 8.0003 1.08272C8.93388 1.08272 9.83977 1.2664 10.6921 1.62661C11.5161 1.97522 12.2559 2.47356 12.8906 3.10885C13.5258 3.74443 14.0242 4.4842 14.3728 5.30734C14.7339 6.16053 14.9167 7.06642 14.9167 8.0003C14.9167 8.93417 14.7342 9.83947 14.3728 10.6915C14.0242 11.5161 13.5258 12.2553 12.8906 12.89ZM8.0003 1.17799C4.23295 1.17799 1.17799 4.23235 1.17799 8.0003C1.17799 11.7682 4.23295 14.8214 8.0003 14.8214C11.7676 14.8214 14.8214 11.7676 14.8214 8.0003C14.8214 4.23295 11.7676 1.17799 8.0003 1.17799Z" fill="url(#paint0_linear_16035_630)"/>
<path d="M8 15.683C5.94798 15.683 4.01861 14.8839 2.56734 13.4327C1.11606 11.9814 0.317047 10.052 0.317047 8C0.317047 5.94798 1.11636 4.01861 2.56734 2.56734C4.01831 1.11606 5.94798 0.317047 8 0.317047C10.052 0.317047 11.9814 1.11636 13.4327 2.56734C14.8839 4.01831 15.683 5.94768 15.683 8C15.683 10.0523 14.8839 11.9814 13.4327 13.4327C11.9814 14.8839 10.0523 15.683 8 15.683ZM8.0003 0.993711C7.0566 0.993711 6.1391 1.17918 5.2731 1.54445C4.43836 1.89782 3.68906 2.40301 3.04633 3.04573C2.4033 3.68876 1.89811 4.43806 1.54445 5.2725C1.17888 6.1388 0.993711 7.0566 0.993711 8.0003C0.993711 8.944 1.17918 9.8612 1.54445 10.7263C1.89752 11.5616 2.40301 12.3109 3.04633 12.9531C3.68876 13.5961 4.43806 14.1013 5.2731 14.4547C6.13612 14.8202 7.05392 15.0054 8.0003 15.0054C8.94668 15.0054 9.86447 14.8199 10.7269 14.4547C11.5625 14.1013 12.3118 13.5958 12.9537 12.9528C13.5967 12.3103 14.1019 11.5613 14.455 10.726C14.8205 9.86388 15.0057 8.94668 15.0057 8C15.0057 7.05333 14.8202 6.13582 14.455 5.27221C14.1016 4.43806 13.5964 3.68876 12.9537 3.04544C12.3115 2.40271 11.5625 1.89752 10.7269 1.54415C9.86179 1.17858 8.94459 0.993711 8.0003 0.993711ZM8.0003 14.7321C6.20191 14.7321 4.51129 14.0319 3.23953 12.7605C1.96777 11.489 1.26729 9.79839 1.26729 8.0003C1.26729 6.20221 1.96777 4.511 3.23953 3.23953C4.51129 1.96777 6.20191 1.26759 8.0003 1.26759C9.79868 1.26759 11.489 1.96807 12.7605 3.23953C14.0319 4.51129 14.7321 6.20191 14.7321 8.0003C14.7321 9.79868 14.0319 11.489 12.7605 12.7605C11.489 14.0319 9.79839 14.7321 8.0003 14.7321Z" fill="url(#paint1_linear_16035_630)"/>
<path d="M8 15.5936C5.97179 15.5936 4.06475 14.8039 2.63045 13.3696C1.19614 11.9353 0.406356 10.0285 0.406356 8C0.406356 5.9715 1.19614 4.06475 2.63045 2.63045C4.06475 1.19644 5.97179 0.406356 8 0.406356C10.0282 0.406356 11.9353 1.19614 13.3696 2.63045C14.8039 4.06475 15.5936 5.9715 15.5936 8C15.5936 10.0285 14.8039 11.9353 13.3696 13.3696C11.9353 14.8039 10.0285 15.5936 8 15.5936ZM8.0003 0.904402C7.04469 0.904402 6.11528 1.09195 5.23827 1.46229C4.39281 1.82012 3.63398 2.33186 2.98292 2.98292C2.33186 3.63398 1.82012 4.39281 1.46199 5.23797C1.09165 6.11558 0.904105 7.04499 0.904105 8.0006C0.904105 8.9562 1.09165 9.88531 1.46199 10.7614C1.81982 11.6075 2.33156 12.3663 2.98292 13.0168C3.63368 13.6678 4.39222 14.1796 5.23797 14.5374C6.11201 14.9078 7.04142 15.0953 8 15.0953C8.95858 15.0953 9.88799 14.9075 10.7614 14.5374C11.6078 14.1796 12.3663 13.6678 13.0165 13.0165C13.6675 12.366 14.1793 11.6075 14.5368 10.7614C14.9069 9.88829 15.0947 8.95918 15.0947 8.0006C15.0947 7.04201 14.9069 6.1126 14.5368 5.23797C14.179 4.39311 13.6672 3.63428 13.0165 2.98292C12.3663 2.33186 11.6075 1.82041 10.7614 1.46229C9.88531 1.09195 8.9562 0.904402 8.0003 0.904402ZM8.0003 14.6428C6.22573 14.6428 4.55744 13.9518 3.30265 12.6974C2.04785 11.4429 1.3566 9.77457 1.3566 8.0003C1.3566 6.22603 2.04785 4.55744 3.30265 3.30265C4.55744 2.04785 6.22573 1.3566 8.0003 1.3566C9.77487 1.3566 11.4429 2.04756 12.6974 3.30235C13.9518 4.55714 14.6428 6.22543 14.6428 8C14.6428 9.77457 13.9518 11.4426 12.6974 12.6971C11.4429 13.9515 9.77457 14.6428 8.0003 14.6428Z" fill="url(#paint2_linear_16035_630)"/>
<path d="M8 11.2327L4.80899 12.9102L5.41838 9.3572L2.83705 6.84077L6.40464 6.32248L8 3.08979L9.59536 6.32248L13.163 6.84077L10.5813 9.3572L11.191 12.9102L8 11.2327Z" fill="url(#paint3_linear_16035_630)"/>
<path d="M8 11.0594L4.98017 12.647L5.5571 9.28426L3.11391 6.90299L6.49008 6.41238L8 3.35296L9.50992 6.41238L12.8861 6.90299L10.4429 9.28426L11.0198 12.647L8 11.0594Z" fill="url(#paint4_linear_16035_630)"/>
<path d="M8 10.8859L5.15134 12.3836L5.69553 9.21162L3.39076 6.96521L6.57582 6.50229L8 3.61642L9.42418 6.50229L12.6092 6.96521L10.3045 9.21162L10.8487 12.3836L8 10.8859Z" fill="url(#paint5_linear_16035_630)"/>
<path d="M8 3.87988L9.33874 6.59249L12.3321 7.02743L10.166 9.13869L10.6775 12.1201L8 10.7126L5.32252 12.1201L5.83396 9.13869L3.66762 7.02743L6.66126 6.59249L8 3.87988Z" fill="white"/>
<defs>
<linearGradient id="paint0_linear_16035_630" x1="0" y1="8" x2="16" y2="8" gradientUnits="userSpaceOnUse">
<stop stop-color="#B36D14"/>
<stop offset="0.08" stop-color="#E89F2E"/>
<stop offset="0.15" stop-color="#FFE94C"/>
<stop offset="0.2" stop-color="#F2CA3E"/>
<stop offset="0.25" stop-color="#E9B233"/>
<stop offset="0.31" stop-color="#E2A12B"/>
<stop offset="0.37" stop-color="#DE9727"/>
<stop offset="0.45" stop-color="#DD9426"/>
<stop offset="0.49" stop-color="#DA9124"/>
<stop offset="0.52" stop-color="#D08A1F"/>
<stop offset="0.54" stop-color="#C17E17"/>
<stop offset="0.56" stop-color="#AB6D0C"/>
<stop offset="0.73" stop-color="#C48C21"/>
<stop offset="0.78" stop-color="#C68E21"/>
<stop offset="0.81" stop-color="#CF9524"/>
<stop offset="0.83" stop-color="#DDA229"/>
<stop offset="0.86" stop-color="#F5B731"/>
<stop offset="0.95" stop-color="#BF8437"/>
<stop offset="1" stop-color="#863A14"/>
</linearGradient>
<linearGradient id="paint1_linear_16035_630" x1="0" y1="8" x2="16" y2="8" gradientUnits="userSpaceOnUse">
<stop offset="0.07" stop-color="#FAD05F"/>
<stop offset="0.15" stop-color="#F5EDA4"/>
<stop offset="0.38" stop-color="#F1CF6E"/>
<stop offset="0.47" stop-color="#ECC45E"/>
<stop offset="0.57" stop-color="#E2B450"/>
<stop offset="0.65" stop-color="#AD7121"/>
<stop offset="0.72" stop-color="#F0D56C"/>
<stop offset="0.79" stop-color="#F6E57D"/>
<stop offset="0.84" stop-color="#F5EFA2"/>
<stop offset="0.89" stop-color="#FFF0C3"/>
<stop offset="1" stop-color="#F9C94A"/>
</linearGradient>
<linearGradient id="paint2_linear_16035_630" x1="0" y1="8" x2="16" y2="8" gradientUnits="userSpaceOnUse">
<stop stop-color="#FFF287"/>
<stop offset="0.23" stop-color="#FFF3B3"/>
<stop offset="0.33" stop-color="#FBEDAB"/>
<stop offset="0.48" stop-color="#F2DD96"/>
<stop offset="0.66" stop-color="#E2C373"/>
<stop offset="0.84" stop-color="#D0A44A"/>
<stop offset="0.93" stop-color="#B38338"/>
<stop offset="1" stop-color="#9E6B2B"/>
</linearGradient>
<linearGradient id="paint3_linear_16035_630" x1="0" y1="-5.03407" x2="16" y2="-5.03407" gradientUnits="userSpaceOnUse">
<stop stop-color="#B36D14"/>
<stop offset="0.08" stop-color="#E89F2E"/>
<stop offset="0.15" stop-color="#FFE94C"/>
<stop offset="0.2" stop-color="#F2CA3E"/>
<stop offset="0.25" stop-color="#E9B233"/>
<stop offset="0.31" stop-color="#E2A12B"/>
<stop offset="0.37" stop-color="#DE9727"/>
<stop offset="0.45" stop-color="#DD9426"/>
<stop offset="0.49" stop-color="#DA9124"/>
<stop offset="0.52" stop-color="#D08A1F"/>
<stop offset="0.54" stop-color="#C17E17"/>
<stop offset="0.56" stop-color="#AB6D0C"/>
<stop offset="0.73" stop-color="#C48C21"/>
<stop offset="0.78" stop-color="#C68E21"/>
<stop offset="0.81" stop-color="#CF9524"/>
<stop offset="0.83" stop-color="#DDA229"/>
<stop offset="0.86" stop-color="#F5B731"/>
<stop offset="0.95" stop-color="#BF8437"/>
<stop offset="1" stop-color="#863A14"/>
</linearGradient>
<linearGradient id="paint4_linear_16035_630" x1="0" y1="-5.7722" x2="16" y2="-5.7722" gradientUnits="userSpaceOnUse">
<stop offset="0.07" stop-color="#FAD05F"/>
<stop offset="0.15" stop-color="#F5EDA4"/>
<stop offset="0.38" stop-color="#F1CF6E"/>
<stop offset="0.47" stop-color="#ECC45E"/>
<stop offset="0.57" stop-color="#E2B450"/>
<stop offset="0.65" stop-color="#AD7121"/>
<stop offset="0.72" stop-color="#F0D56C"/>
<stop offset="0.79" stop-color="#F6E57D"/>
<stop offset="0.84" stop-color="#F5EFA2"/>
<stop offset="0.89" stop-color="#FFF0C3"/>
<stop offset="1" stop-color="#F9C94A"/>
</linearGradient>
<linearGradient id="paint5_linear_16035_630" x1="0" y1="-6.59993" x2="16" y2="-6.59993" gradientUnits="userSpaceOnUse">
<stop stop-color="#FFF287"/>
<stop offset="0.23" stop-color="#FFF3B3"/>
<stop offset="0.33" stop-color="#FBEDAB"/>
<stop offset="0.48" stop-color="#F2DD96"/>
<stop offset="0.66" stop-color="#E2C373"/>
<stop offset="0.84" stop-color="#D0A44A"/>
<stop offset="0.93" stop-color="#B38338"/>
<stop offset="1" stop-color="#9E6B2B"/>
</linearGradient>
</defs>
</svg>
